<svg width="319" height="218" viewBox="0 0 319 218" fill="none" xmlns="http://www.w3.org/2000/svg">
<g clip-path="url(#clip0_336_7169)">
<path fill-rule="evenodd" clip-rule="evenodd" d="M20.1158 197.217V216.835L25.5052 216.836V210.813H27.5225L30.9758 216.836H37.0558L32.9105 209.625C33.7913 209.003 34.5033 208.172 34.9825 207.206C35.4798 206.222 35.7291 205.157 35.7291 204.015C35.7254 203.166 35.5565 202.326 35.2318 201.542C34.9109 200.738 34.4474 199.998 33.8638 199.358C33.2731 198.715 32.5654 198.19 31.7785 197.811C30.9652 197.417 30.0825 197.217 29.1252 197.217H20.1158ZM28.9025 206.115H25.5052L25.5038 201.915H28.7652C29.0958 201.915 29.4265 202.094 29.7598 202.454C30.0905 202.813 30.2558 203.334 30.2558 204.015C30.2558 204.678 30.1145 205.194 29.8292 205.562C29.5425 205.931 29.2345 206.115 28.9025 206.115Z" fill="#B8124A"/>
<path fill-rule="evenodd" clip-rule="evenodd" d="M47.8598 216.144C49.0758 216.716 50.4278 217.002 51.9211 217.002C53.3771 217.002 54.7158 216.726 55.9424 216.174C57.1274 215.649 58.2013 214.903 59.1064 213.975C59.989 213.065 60.6916 211.997 61.1771 210.826C61.6757 209.638 61.9237 208.399 61.9237 207.11C61.9231 205.851 61.6843 204.604 61.2197 203.434C60.7583 202.25 60.079 201.163 59.2171 200.23C58.3343 199.278 57.2734 198.508 56.0944 197.963C54.8784 197.393 53.5238 197.107 52.0318 197.107C50.5771 197.107 49.2371 197.379 48.0118 197.922C46.8231 198.44 45.7445 199.181 44.8344 200.105C43.9412 201.015 43.2322 202.089 42.7465 203.269C42.2505 204.467 41.9998 205.71 41.9998 206.999C42 208.268 42.2445 209.525 42.7198 210.702C43.6662 213.112 45.508 215.062 47.8598 216.144ZM47.7491 208.974C47.564 208.351 47.471 207.704 47.4731 207.054C47.4721 206.414 47.5605 205.777 47.7358 205.162C47.9012 204.563 48.1775 204.001 48.5504 203.505C48.922 203.014 49.3985 202.612 49.9451 202.329C50.5078 202.034 51.1758 201.887 51.9491 201.887C52.7038 201.887 53.3624 202.03 53.9251 202.315C54.4705 202.588 54.9511 202.974 55.3344 203.449C55.7191 203.932 56.0054 204.486 56.1771 205.079C56.3598 205.695 56.4531 206.337 56.4531 206.999C56.4531 207.645 56.3651 208.281 56.1918 208.906C56.0158 209.531 55.7491 210.089 55.3891 210.578C55.0304 211.066 54.5651 211.462 53.9944 211.766C53.4224 212.07 52.7504 212.222 51.9771 212.222C51.2038 212.222 50.5331 212.075 49.9731 211.779C49.429 211.499 48.953 211.103 48.5784 210.619C48.2091 210.139 47.9331 209.591 47.7491 208.974Z" fill="#B8124A"/>
<path d="M74.165 216.835V207.194L81.957 216.836H86.241V197.217H80.8517V207.194L72.9771 197.218H68.7757V216.835H74.165Z" fill="#B8124A"/>
<path d="M103.816 201.914H109.453V197.218H92.761V201.917H98.4277V216.836H103.816V201.914Z" fill="#B8124A"/>
<path d="M131.177 203.323C130.726 204.485 130.5 205.665 130.5 206.861V206.862C130.503 208.13 130.747 209.386 131.218 210.563C131.689 211.767 132.379 212.873 133.252 213.826C134.133 214.789 135.193 215.572 136.372 216.132C137.578 216.714 138.909 217.002 140.365 217.002C141.226 216.999 142.083 216.897 142.921 216.699C143.773 216.505 144.599 216.208 145.38 215.815C146.128 215.439 146.817 214.954 147.425 214.376C148.004 213.835 148.461 213.175 148.765 212.443L144.372 209.817C144.205 210.261 143.98 210.634 143.694 210.937C143.409 211.241 143.086 211.491 142.729 211.683C142.369 211.878 141.996 212.014 141.609 212.098C141.222 212.181 140.844 212.223 140.476 212.223C139.819 212.233 139.17 212.086 138.582 211.794C138.021 211.509 137.546 211.126 137.16 210.647C136.773 210.167 136.477 209.615 136.276 208.99C136.073 208.363 135.972 207.71 135.972 207.027C135.974 206.406 136.062 205.787 136.234 205.19C136.399 204.594 136.67 204.033 137.034 203.533C137.4 203.038 137.872 202.631 138.416 202.342C138.978 202.041 139.648 201.889 140.421 201.889C140.806 201.89 141.189 201.926 141.568 201.998C141.966 202.072 142.352 202.202 142.714 202.385C143.082 202.57 143.418 202.818 143.722 203.13C144.045 203.473 144.294 203.878 144.454 204.321L148.572 201.389C147.89 200.101 146.854 199.063 145.464 198.279C144.072 197.498 142.428 197.109 140.53 197.109C138.946 197.109 137.537 197.393 136.302 197.962C135.118 198.498 134.048 199.259 133.153 200.202C132.286 201.123 131.628 202.163 131.177 203.323Z" fill="#B8124A"/>
<path fill-rule="evenodd" clip-rule="evenodd" d="M159.709 216.144C160.923 216.716 162.277 217.002 163.769 217.002C165.225 217.002 166.565 216.726 167.79 216.174C168.975 215.649 170.049 214.903 170.954 213.975C171.838 213.066 172.541 211.997 173.027 210.826C173.525 209.638 173.773 208.399 173.773 207.11C173.771 205.851 173.533 204.604 173.069 203.434C172.607 202.25 171.927 201.163 171.065 200.23C170.182 199.277 169.121 198.507 167.942 197.963C166.726 197.393 165.373 197.107 163.879 197.107C162.425 197.107 161.085 197.379 159.859 197.922C157.474 198.949 155.585 200.867 154.596 203.269C154.098 204.467 153.849 205.71 153.849 206.999C153.848 208.268 154.093 209.525 154.569 210.702C155.036 211.882 155.72 212.965 156.585 213.894C157.471 214.839 158.532 215.603 159.709 216.144ZM159.598 208.974C159.413 208.359 159.321 207.718 159.321 207.054C159.32 206.414 159.408 205.777 159.583 205.162C159.749 204.564 160.026 204.001 160.398 203.505C160.77 203.013 161.247 202.611 161.794 202.329C162.357 202.034 163.023 201.887 163.797 201.887C164.553 201.887 165.21 202.03 165.773 202.315C166.318 202.588 166.799 202.974 167.182 203.449C167.559 203.918 167.841 204.462 168.026 205.079C168.21 205.695 168.302 206.337 168.302 206.999C168.302 207.645 168.213 208.281 168.039 208.906C167.863 209.531 167.598 210.089 167.238 210.578C166.878 211.066 166.413 211.462 165.842 211.766C165.27 212.07 164.598 212.222 163.825 212.222C163.051 212.222 162.383 212.075 161.821 211.779C161.277 211.499 160.801 211.103 160.427 210.619C160.057 210.139 159.781 209.591 159.598 208.974Z" fill="#B8124A"/>
<path d="M195.465 206.502V216.836H200.853V197.217H194.994L190.738 206.447L186.511 197.217H180.626V216.836H186.014V206.502L189.302 213.77H192.175L195.465 206.502Z" fill="#B8124A"/>
<path d="M223.622 206.502V216.836H229.01V197.217H223.151L218.897 206.447L214.669 197.217H208.782V216.836H214.171V206.502L217.459 213.77H220.333L223.622 206.502Z" fill="#B8124A"/>
<path d="M250.922 216.835V212.138H242.329V209.045H249.458V204.678H242.329V201.915H250.673V197.218H236.941V216.835H250.922Z" fill="#B8124A"/>
<path fill-rule="evenodd" clip-rule="evenodd" d="M257.997 197.217V216.835L263.383 216.836V210.813H265.402L268.855 216.836H274.934L270.79 209.625C271.67 209.002 272.382 208.171 272.861 207.206C273.358 206.222 273.607 205.157 273.607 204.015C273.604 203.166 273.435 202.326 273.11 201.542C272.789 200.738 272.326 199.998 271.743 199.358C271.152 198.715 270.444 198.19 269.657 197.811C268.846 197.417 267.963 197.217 267.003 197.217H257.997ZM266.783 206.115H263.383V201.915H266.645C266.975 201.915 267.307 202.094 267.638 202.454C267.97 202.813 268.135 203.334 268.135 204.015C268.135 204.678 267.994 205.194 267.709 205.562C267.423 205.931 267.114 206.115 266.783 206.115Z" fill="#B8124A"/>
<path d="M280.557 203.323C280.106 204.485 279.879 205.665 279.879 206.861V206.862C279.882 208.13 280.126 209.386 280.598 210.563C281.069 211.767 281.758 212.873 282.631 213.826C283.513 214.788 284.572 215.572 285.751 216.132C286.959 216.714 288.291 217.002 289.745 217.002C290.605 216.999 291.463 216.897 292.301 216.699C293.153 216.505 293.979 216.209 294.759 215.815C295.508 215.439 296.197 214.954 296.805 214.376C297.383 213.835 297.84 213.175 298.145 212.443L293.751 209.817C293.585 210.261 293.359 210.634 293.074 210.937C292.788 211.241 292.466 211.491 292.108 211.683C291.749 211.878 291.375 212.014 290.988 212.098C290.602 212.181 290.223 212.223 289.855 212.223C289.199 212.233 288.55 212.086 287.962 211.794C287.401 211.509 286.926 211.126 286.539 210.647C286.152 210.167 285.857 209.615 285.655 208.99C285.453 208.363 285.351 207.71 285.351 207.027C285.353 206.405 285.441 205.787 285.614 205.19C285.778 204.594 286.049 204.032 286.414 203.533C286.78 203.038 287.252 202.632 287.795 202.342C288.358 202.041 289.027 201.889 289.801 201.889C290.185 201.89 290.569 201.927 290.947 201.998C291.346 202.072 291.732 202.202 292.094 202.385C292.462 202.57 292.798 202.818 293.102 203.13C293.425 203.473 293.674 203.878 293.835 204.321L297.952 201.389C297.27 200.101 296.234 199.063 294.843 198.279C293.452 197.498 291.807 197.109 289.91 197.109C288.326 197.109 286.917 197.393 285.683 197.962C284.498 198.499 283.429 199.259 282.533 200.202C281.666 201.123 281.01 202.163 280.557 203.323Z" fill="#B8124A"/>
<path d="M318.594 216.835V212.138H310V209.045H317.128V204.678H310V201.915H318.344V197.218H304.612V216.835H318.594Z" fill="#B8124A"/>
<path d="M116.164 207.834L123.67 203.583V209.373L116.164 213.624V207.834Z" fill="#B8124A"/>
<path d="M0 216.836V197.216H13.458V201.915H5.39V205.175H11.966V209.54H5.39V216.836H0Z" fill="#B8124A"/>
<path d="M193.264 59.33L227.55 39.564L159.062 0.0229492L90.572 39.564V118.648L124.898 138.467L124.855 98.825L159.06 118.573L159.064 79.108L124.854 59.329L159.06 39.581L193.264 59.33ZM193.264 98.825L227.55 118.649L159.062 158.19L159.06 118.573L193.264 98.825Z" fill="#B8124A"/>
</g>
<defs>
<clipPath id="clip0_336_7169">
<rect width="319" height="218" fill="white"/>
</clipPath>
</defs>
</svg>
